<?xml version="1.0" encoding="utf-8"?>
<!-- Generator: Adobe Illustrator 23.0.3, SVG Export Plug-In . SVG Version: 6.00 Build 0)  -->
<svg version="1.1" id="Слой_1" xmlns="http://www.w3.org/2000/svg" xmlns:xlink="http://www.w3.org/1999/xlink" x="0px" y="0px"
	 viewBox="0 0 82.54 22.68" style="enable-background:new 0 0 82.54 22.68;" xml:space="preserve">
<style type="text/css">
	.st0{fill-rule:evenodd;clip-rule:evenodd;fill:#F6F6F6;}
	.st1{fill:#E10718;}
	.st2{fill-rule:evenodd;clip-rule:evenodd;fill:#131515;}
	.st3{fill:#FFFFFF;}
	.st4{fill:none;stroke:#EDEDED;stroke-miterlimit:10;}
	.st5{fill:#379CD1;}
	.st6{fill:#3C2D66;}
	.st7{fill:#FFFFFF;stroke:#C6C6C6;stroke-width:0.25;stroke-miterlimit:10;}
	.st8{fill:#006C34;}
	.st9{fill:#EDEDED;}
	.st10{fill:#E40056;}
	.st11{fill:#E5004E;}
	.st12{fill:#2D2D2D;}
	.st13{fill-rule:evenodd;clip-rule:evenodd;}
	.st14{fill:none;stroke:#C6C6C6;stroke-width:0.25;stroke-miterlimit:10;}
	.st15{fill:#107BC0;stroke:#FFFFFF;stroke-width:0.2835;stroke-miterlimit:10;}
	.st16{fill:#13110C;}
	.st17{fill:#9D9D9C;}
	.st18{fill-rule:evenodd;clip-rule:evenodd;fill:#006C34;}
	.st19{fill-rule:evenodd;clip-rule:evenodd;fill:#E40056;}
	.st20{fill:#F6F6F6;}
	.st21{fill:none;stroke:#DADADA;stroke-miterlimit:10;}
	.st22{fill:#35322F;}
	.st23{clip-path:url(#SVGID_2_);fill:#010202;}
	.st24{clip-path:url(#SVGID_2_);}
	.st25{clip-path:url(#SVGID_4_);fill:#FFFFFF;}
	.st26{clip-path:url(#SVGID_4_);fill:#E73233;}
	.st27{clip-path:url(#SVGID_6_);fill:none;stroke:#B2B2B2;stroke-width:0.25;stroke-miterlimit:10;}
	.st28{clip-path:url(#SVGID_6_);fill:#3C3C3B;}
	.st29{clip-path:url(#SVGID_6_);fill-rule:evenodd;clip-rule:evenodd;fill:#575756;}
	.st30{clip-path:url(#SVGID_6_);fill:#DADADA;}
	.st31{fill:none;stroke:#B2B2B2;stroke-width:0.25;stroke-miterlimit:10;}
	.st32{fill-rule:evenodd;clip-rule:evenodd;fill:#575756;}
	.st33{fill:#DADADA;}
	.st34{fill:none;}
	.st35{fill:#3C3C3B;}
	.st36{clip-path:url(#SVGID_8_);fill:#010202;}
	.st37{clip-path:url(#SVGID_8_);}
	.st38{clip-path:url(#SVGID_10_);fill:#FFFFFF;}
	.st39{clip-path:url(#SVGID_10_);fill:#E73233;}
	.st40{clip-path:url(#SVGID_12_);fill:#010202;}
	.st41{clip-path:url(#SVGID_12_);}
	.st42{clip-path:url(#SVGID_14_);fill:#FFFFFF;}
	.st43{clip-path:url(#SVGID_14_);fill:#E73233;}
	.st44{clip-path:url(#SVGID_16_);fill:#010202;}
	.st45{clip-path:url(#SVGID_16_);}
	.st46{clip-path:url(#SVGID_18_);fill:#FFFFFF;}
	.st47{clip-path:url(#SVGID_18_);fill:#E73233;}
	.st48{fill:#008D36;}
	.st49{clip-path:url(#SVGID_28_);fill:#B2B2B2;}
	.st50{clip-path:url(#SVGID_28_);fill:url(#SVGID_29_);}
	.st51{clip-path:url(#SVGID_28_);fill:url(#SVGID_30_);}
	.st52{clip-path:url(#SVGID_28_);fill:url(#SVGID_31_);}
	.st53{clip-path:url(#SVGID_28_);fill:url(#SVGID_32_);}
	.st54{clip-path:url(#SVGID_28_);fill:url(#SVGID_33_);}
	.st55{clip-path:url(#SVGID_28_);fill:url(#SVGID_34_);}
	.st56{clip-path:url(#SVGID_36_);fill:#CCCCCC;}
	.st57{clip-path:url(#SVGID_36_);fill:url(#SVGID_37_);}
	.st58{clip-path:url(#SVGID_36_);fill:url(#SVGID_38_);}
	.st59{fill:#4C4846;}
	.st60{clip-path:url(#SVGID_40_);}
	.st61{clip-path:url(#SVGID_42_);}
	.st62{opacity:0.5;}
	.st63{clip-path:url(#SVGID_46_);fill:url(#SVGID_47_);}
	.st64{fill:#878787;}
	.st65{clip-path:url(#SVGID_57_);}
	.st66{opacity:0.3;clip-path:url(#SVGID_57_);}
	.st67{fill-rule:evenodd;clip-rule:evenodd;fill:#FFFFFF;}
	.st68{fill-rule:evenodd;clip-rule:evenodd;fill:#009FE3;stroke:#009FE3;stroke-miterlimit:10;}
	.st69{opacity:0.78;}
</style>
<g>
	<g>
		<path class="st6" d="M82.54,8C81.68,8,80.82,8,79.95,7.99c-0.11,0-0.15,0.03-0.14,0.14c0.01,0.07,0,0.13,0,0.2
			c0,3.17,0,6.35,0,9.52c0,0.34,0.04,0.3-0.31,0.3c-0.85,0-1.69,0-2.54,0c-0.28,0-0.26,0.03-0.26-0.26c0-3.14,0-6.28,0-9.42
			c0-0.09,0-0.18,0-0.28c0-0.21,0-0.21-0.22-0.21c-0.42,0-0.84,0-1.26,0c-0.05,0-0.1,0-0.15,0c-0.1,0.01-0.16-0.03-0.15-0.14
			c0-0.11,0-0.22,0-0.33c0-0.53,0-1.06,0-1.58c0-0.24,0-0.24,0.23-0.24c0.44,0,0.87,0,1.31,0c0.28,0,0.25,0,0.25-0.24
			c0-1.31,0-2.61,0-3.92c0-0.05,0-0.1,0-0.15c0-0.22,0-0.22,0.22-0.22c0.88,0,1.76,0,2.64,0c0.25,0,0.25,0,0.25,0.24
			c0,1.32,0,2.63,0,3.95c0,0.06,0.01,0.12,0,0.18c-0.02,0.14,0.04,0.17,0.17,0.17c0.84,0,1.68,0,2.51,0c0.02,0,0.03-0.01,0.05-0.02
			V8z"/>
		<path class="st6" d="M21.28,22.67c-6.98,0-13.97,0-20.95,0c-0.34,0-0.33,0.05-0.33-0.32c0-0.55,0-1.1,0-1.66
			c0-0.22,0-0.22,0.22-0.22c0.07,0,0.13,0,0.2,0h38.67c0.35,0,0.35,0,0.35-0.36c0-0.25,0-0.5,0-0.75c0-0.22,0-0.22,0.21-0.22
			c0.59,0,1.17,0,1.76,0c0.32,0,0.64,0,0.95,0c0.21,0,0.21,0,0.21,0.2c0,0.89,0,1.77,0,2.66c0,0.18,0,0.35,0,0.53
			c0,0.11-0.04,0.15-0.15,0.15c-0.07-0.01-0.13,0-0.2,0L21.28,22.67L21.28,22.67z"/>
		<path class="st5" d="M8.57,7.35c0.3-0.4,0.62-0.75,1-1.04c0.67-0.52,1.43-0.82,2.27-0.92c0.75-0.1,1.49-0.03,2.2,0.24
			c1.06,0.39,1.8,1.14,2.26,2.17c0.28,0.62,0.42,1.28,0.49,1.96c0.04,0.42,0.04,0.84,0.04,1.25c0,2.19,0,4.37,0,6.56
			c0,0.33,0.05,0.33-0.34,0.33c-0.81,0-1.63,0-2.44,0c-0.05,0-0.1,0-0.15,0c-0.13,0.01-0.18-0.06-0.17-0.18c0-0.06,0-0.12,0-0.18
			c0-2.19,0-4.37,0-6.56c0-0.48-0.03-0.95-0.17-1.42c-0.11-0.37-0.26-0.71-0.51-1c-0.51-0.59-1.19-0.78-1.93-0.68
			c-1.1,0.14-1.78,0.81-2.16,1.83C8.85,10,8.83,10.31,8.83,10.62c0,2.31,0,4.62,0,6.94c0,0.37,0.05,0.34-0.33,0.34
			c-0.82,0-1.64,0-2.46,0c-0.07,0-0.13,0-0.2,0c-0.08,0-0.12-0.05-0.12-0.13c0-0.06,0-0.12,0-0.18l0-11.71
			c0-0.29-0.02-0.28,0.27-0.27c0.76,0,1.52,0,2.29,0.01c0.04,0,0.08,0,0.13,0C8.53,5.6,8.57,5.66,8.57,5.79
			c-0.01,0.43,0,0.85,0,1.28C8.57,7.16,8.57,7.25,8.57,7.35"/>
		<path class="st5" d="M58.25,12.62h-3.79c-0.07,0-0.13,0-0.2,0c-0.07,0-0.1,0.03-0.1,0.11c0.07,1.13,0.56,2,1.57,2.55
			c0.59,0.33,1.24,0.47,1.9,0.5c1.19,0.04,2.36-0.08,3.49-0.47c0.21-0.07,0.22-0.07,0.26,0.15c0.12,0.57,0.24,1.14,0.37,1.72
			c0.04,0.2,0.04,0.2-0.15,0.27c-0.68,0.25-1.37,0.44-2.08,0.55c-0.81,0.13-1.63,0.19-2.45,0.15c-0.93-0.04-1.83-0.22-2.67-0.62
			c-1.53-0.73-2.51-1.93-2.94-3.56c-0.5-1.91-0.35-3.78,0.56-5.54c0.86-1.68,2.23-2.7,4.11-3.01c0.94-0.15,1.87-0.12,2.78,0.15
			c1.37,0.41,2.31,1.31,2.91,2.58c0.37,0.8,0.56,1.64,0.63,2.52c0.05,0.58,0.02,1.15-0.05,1.73c-0.02,0.19,0,0.21-0.25,0.21
			C60.85,12.62,59.55,12.62,58.25,12.62 M56.85,10.46c0.84,0,1.67,0,2.51,0c0.19,0,0.2-0.01,0.19-0.2
			c-0.04-0.57-0.14-1.13-0.43-1.63c-0.16-0.27-0.35-0.51-0.6-0.7c-0.94-0.7-2.39-0.62-3.25,0.17c-0.62,0.57-0.93,1.3-1.08,2.11
			c0,0.02-0.01,0.05-0.01,0.08c-0.01,0.17,0,0.17,0.16,0.18c0.05,0,0.1,0,0.15,0H56.85z"/>
		<path class="st5" d="M36.11,15.25c0.09,0.28,0.13,0.54,0.18,0.8c0.08,0.39,0.16,0.79,0.25,1.18c0.03,0.14-0.02,0.18-0.12,0.22
			c-0.6,0.23-1.22,0.4-1.86,0.52c-0.89,0.17-1.79,0.24-2.7,0.19c-1.12-0.05-2.19-0.3-3.16-0.88c-1.26-0.75-2.07-1.84-2.45-3.25
			c-0.52-1.95-0.37-3.86,0.58-5.66c0.89-1.69,2.31-2.69,4.2-2.97c0.99-0.15,1.97-0.08,2.92,0.26c1.31,0.48,2.18,1.4,2.72,2.66
			c0.36,0.85,0.55,1.74,0.57,2.66c0.01,0.49,0.02,0.97-0.06,1.45c-0.03,0.17-0.03,0.18-0.2,0.18c-0.06,0-0.12,0-0.18,0
			c-2.52,0-5.04,0-7.57,0c-0.32,0-0.31,0-0.28,0.32c0.06,0.48,0.2,0.93,0.46,1.34c0.37,0.58,0.9,0.96,1.53,1.2
			c0.51,0.2,1.05,0.29,1.6,0.3C33.76,15.81,34.94,15.68,36.11,15.25 M31.63,10.46c0.83,0,1.66,0,2.49,0c0.21,0,0.21,0,0.21-0.21
			c-0.01-0.6-0.15-1.16-0.45-1.68c-0.22-0.38-0.52-0.68-0.92-0.87c-0.75-0.34-1.52-0.37-2.26-0.02c-1.11,0.52-1.55,1.52-1.74,2.65
			c-0.02,0.09,0.03,0.12,0.11,0.12c0.06,0,0.12,0,0.18,0H31.63z"/>
		<path class="st6" d="M62.81,22.67c-4.48,0-8.97,0-13.45,0c-1.09,0-2.18,0-3.26,0c-0.06,0-0.12,0-0.18,0
			c-0.08,0-0.13-0.03-0.12-0.12c0-0.04,0-0.08,0-0.13c0-1.02,0-2.04,0-3.07c0-0.23,0-0.23,0.23-0.23c0.89,0,1.77,0,2.66,0
			c0.22,0,0.22,0,0.22,0.22c0,0.32,0.01,0.64,0,0.96c0,0.13,0.04,0.18,0.17,0.17c0.07-0.01,0.13,0,0.2,0c10.06,0,20.13,0,30.19,0
			c0.38,0,0.33-0.06,0.33,0.33c0,0.55,0,1.11,0,1.66c0,0.2,0,0.21-0.21,0.21c-0.63,0-1.25,0-1.88,0H62.81z"/>
		<path class="st5" d="M22.82,12.73v4.72c0,0.06,0,0.12,0,0.18c0.01,0.13-0.04,0.18-0.17,0.18c-0.25-0.01-0.5,0-0.75,0
			c-0.65,0-1.31,0-1.96,0c-0.2,0-0.2,0-0.2-0.19c0-0.06,0-0.12,0-0.18c0-3.17,0-6.33,0-9.5c0-0.3,0.05-0.32-0.31-0.32
			c-0.43,0-0.85,0-1.28,0c-0.19,0-0.2-0.01-0.2-0.2c0-0.62,0-1.24,0-1.86c0-0.21,0.01-0.21,0.21-0.22c0.44,0,0.87,0,1.31,0
			c0.27,0,0.28,0,0.28-0.27c0-1.29,0-2.58,0-3.87c0-0.05,0-0.1,0-0.15c0-0.23,0-0.24,0.23-0.24c0.76,0,1.52,0,2.29,0
			c0.13,0,0.27,0,0.4,0c0.11,0,0.18,0.03,0.17,0.16c0,0.06,0,0.12,0,0.18c0,1.29,0,2.58,0,3.87c0,0.07,0,0.13,0,0.2
			c0,0.08,0.03,0.13,0.12,0.12c0.06,0,0.12,0,0.18,0c0.75,0,1.49,0,2.24,0c0.21,0,0.21,0,0.21,0.2c0,0.62,0,1.24,0,1.86
			c0,0.2,0,0.21-0.22,0.21c-0.74,0-1.47,0-2.21,0c-0.06,0-0.12,0-0.18,0c-0.09,0-0.14,0.04-0.14,0.13c0,0.07,0,0.13,0,0.2
			C22.82,9.54,22.82,11.13,22.82,12.73"/>
		<path class="st5" d="M70.42,18.16c-1.27,0-2.35-0.2-3.36-0.71c-1.43-0.73-2.35-1.88-2.82-3.4c-0.26-0.85-0.35-1.72-0.3-2.61
			c0.09-1.47,0.55-2.8,1.53-3.93c0.67-0.77,1.49-1.32,2.43-1.68c1.07-0.41,2.19-0.55,3.33-0.48c0.7,0.04,1.4,0.16,2.07,0.39
			c0.07,0.02,0.14,0.05,0.21,0.07c0.25,0.11,0.26,0.09,0.19,0.36c-0.16,0.62-0.3,1.25-0.45,1.88c-0.04,0.17-0.05,0.17-0.21,0.11
			c-0.72-0.3-1.48-0.42-2.26-0.4c-1.83,0.04-3.17,1.12-3.56,2.91c-0.21,0.97-0.16,1.93,0.23,2.86c0.47,1.12,1.31,1.8,2.48,2.06
			c1.06,0.23,2.1,0.09,3.11-0.27c0.26-0.09,0.27-0.1,0.32,0.18c0.12,0.62,0.22,1.23,0.35,1.85c0.03,0.13-0.01,0.18-0.12,0.22
			c-0.59,0.24-1.21,0.39-1.84,0.48C71.25,18.13,70.76,18.17,70.42,18.16"/>
		<path class="st5" d="M42.58,8.96c0,2.87,0,5.75,0,8.62c0,0.34,0.03,0.32-0.31,0.32h-2.49c-0.06,0-0.12,0-0.18,0
			c-0.1,0-0.16-0.04-0.15-0.15c0-0.06,0-0.12,0-0.18c0-5.75,0-11.49,0-17.24c0-0.36-0.04-0.32,0.32-0.33c0.83,0,1.66,0,2.49,0
			c0.06,0,0.12,0,0.18,0c0.09,0,0.14,0.04,0.14,0.13c0,0.08,0,0.15,0,0.23C42.58,3.23,42.58,6.09,42.58,8.96"/>
		<path class="st5" d="M48.91,8.93c0,2.88,0,5.76,0,8.65c0,0.33,0.03,0.32-0.31,0.32c-0.84,0-1.68,0-2.51,0c-0.06,0-0.12,0-0.18,0
			c-0.08,0-0.12-0.04-0.12-0.12c0-0.06,0-0.12,0-0.18c0-5.76,0-11.53,0-17.29c0-0.32-0.03-0.3,0.3-0.3c0.85,0,1.69,0,2.54,0
			c0.05,0,0.1,0,0.15,0c0.09,0,0.14,0.04,0.14,0.13c0,0.08,0,0.15,0,0.23C48.91,3.22,48.91,6.07,48.91,8.93"/>
		<path class="st6" d="M0,11.6V5.67c0-0.04,0-0.08,0-0.13C0,5.3,0,5.3,0.25,5.3c0.88,0,1.76,0,2.64,0c0.22,0,0.22,0,0.22,0.22
			c0,4.05,0,8.11,0,12.16c0,0.21,0,0.21-0.2,0.21c-0.89,0-1.78,0-2.66,0C0,17.89,0,17.89,0,17.66C0,15.64,0,13.62,0,11.6"/>
		<path class="st6" d="M1.54,4.04c-0.45,0-0.9,0-1.36,0c-0.2,0-0.2,0-0.2-0.18c0-0.92,0-1.84,0-2.76c0-0.18,0-0.18,0.18-0.18
			c0.93,0,1.86,0,2.79,0c0.17,0,0.18,0,0.18,0.18c0,0.92,0,1.84,0,2.76c0,0.18,0,0.18-0.2,0.18C2.46,4.04,2,4.04,1.54,4.04"/>
	</g>
</g>
</svg>
